<?xml version="1.0" encoding="UTF-8" standalone="no"?>
<!-- Created with Inkscape (http://www.inkscape.org/) -->

<svg
   xmlns:dc="http://purl.org/dc/elements/1.1/"
   xmlns:cc="http://creativecommons.org/ns#"
   xmlns:rdf="http://www.w3.org/1999/02/22-rdf-syntax-ns#"
   xmlns:svg="http://www.w3.org/2000/svg"
   xmlns="http://www.w3.org/2000/svg"
   xmlns:sodipodi="http://sodipodi.sourceforge.net/DTD/sodipodi-0.dtd"
   xmlns:inkscape="http://www.inkscape.org/namespaces/inkscape"
   version="1.1"
   id="svg2"
   width="1024"
   height="1024"
   viewBox="0 0 1024 1024"
   sodipodi:docname="ticktick.svg"
   inkscape:version="0.92.4 (5da689c313, 2019-01-14)">
  <metadata
     id="metadata8">
    <rdf:RDF>
      <cc:Work
         rdf:about="">
        <dc:format>image/svg+xml</dc:format>
        <dc:type
           rdf:resource="http://purl.org/dc/dcmitype/StillImage" />
        <dc:title></dc:title>
      </cc:Work>
    </rdf:RDF>
  </metadata>
  <defs
     id="defs6" />
  <sodipodi:namedview
     pagecolor="#ffffff"
     bordercolor="#666666"
     borderopacity="1"
     objecttolerance="10"
     gridtolerance="10"
     guidetolerance="10"
     inkscape:pageopacity="0"
     inkscape:pageshadow="2"
     inkscape:window-width="1920"
     inkscape:window-height="949"
     id="namedview4"
     showgrid="false"
     fit-margin-top="0"
     fit-margin-left="0"
     fit-margin-right="0"
     fit-margin-bottom="0"
     inkscape:zoom="0.59"
     inkscape:cx="670.82845"
     inkscape:cy="487.08482"
     inkscape:window-x="0"
     inkscape:window-y="28"
     inkscape:window-maximized="1"
     inkscape:current-layer="svg2" />
  <g
     id="g458"
     transform="matrix(3.08405,0,0,3.08405,-106.26,-103.64748)">
    <path
       style="fill:#607ddd"
       d="M 189,365.42941 C 161.85357,362.41012 146.4017,358.1143 125.58834,347.80017 81.234178,325.82033 47.511387,281.76408 37.569113,232.8098 c -4.152557,-20.44658 -4.152557,-45.17302 0,-65.6196 C 47.509721,118.24412 81.076368,74.378668 125.58834,52.165224 146.41366,41.772465 166.25031,36.43524 191.25,34.498373 L 200,33.820462 V 52.910231 72 l -5.25,0.0059 C 173.79761,72.02943 147.62203,80.681341 127.79341,94.137309 69.581527,133.64067 54.419739,213.92393 94.165335,272.20147 c 27.798955,40.76061 76.492435,61.79295 125.838825,54.35399 54.12188,-8.15887 98.39243,-52.42942 106.5513,-106.5513 0.78801,-5.22729 1.4354,-11.86666 1.43864,-14.75416 L 328,200 h 19.10408 19.10408 l -0.6525,8.25 c -1.05264,13.30924 -2.5146,22.61867 -5.14308,32.75 -16.55624,63.81516 -69.32694,112.05145 -133.99902,122.48492 -9.32097,1.50374 -31.16766,2.63918 -37.41356,1.94449 z m 4.34657,-115.35925 c -3.61787,-1.64273 -14.29313,-10.13225 -60.64478,-48.2279 -5.38902,-4.42914 -9.65179,-8.49226 -9.47283,-9.02914 0.8384,-2.5152 26.40914,-32.67859 27.41641,-32.34056 1.31586,0.44159 39.31195,31.28484 43.90224,35.63756 1.67618,1.58943 3.31962,2.88988 3.65208,2.88988 0.33245,0 23.6426,-28.8 51.80031,-64 28.15771,-35.2 51.71702,-64 52.35401,-64 0.63698,0 8.48018,5.868041 17.42933,13.04009 11.14873,8.934852 16.02648,13.436925 15.49391,14.300617 -0.6231,1.010534 -56.71543,71.124353 -62.60383,78.253023 -0.86604,1.04845 -12.16895,15.18127 -25.11758,31.40627 -12.94864,16.225 -25.6576,31.91567 -28.24214,34.86815 -7.61835,8.70292 -16.95722,11.29307 -25.96713,7.20201 z"
       id="path462"
       inkscape:connector-curvature="0" />
    <path
       style="fill:#fcaf05"
       d="m 193.34657,250.07016 c -3.61787,-1.64273 -14.29313,-10.13225 -60.64478,-48.2279 -5.38902,-4.42914 -9.65179,-8.49226 -9.47283,-9.02914 0.8384,-2.5152 26.40914,-32.67859 27.41641,-32.34056 1.31586,0.44159 39.31195,31.28484 43.90224,35.63756 1.67618,1.58943 3.31962,2.88988 3.65208,2.88988 0.33245,0 23.6426,-28.8 51.80031,-64 28.15771,-35.2 51.71702,-64 52.35401,-64 0.63698,0 8.48018,5.868041 17.42933,13.04009 11.14873,8.934852 16.02648,13.436925 15.49391,14.300617 -0.6231,1.010534 -56.71543,71.124353 -62.60383,78.253023 -0.86604,1.04845 -12.16895,15.18127 -25.11758,31.40627 -12.94864,16.225 -25.6576,31.91567 -28.24214,34.86815 -7.61835,8.70292 -16.95722,11.29307 -25.96713,7.20201 z"
       id="path460"
       inkscape:connector-curvature="0" />
  </g>
</svg>
